<svg width="186" height="234" viewBox="0 0 186 234" fill="none" xmlns="http://www.w3.org/2000/svg">
<path d="M105.5 13C105.5 6.09644 99.9036 0.5 93 0.5C86.0964 0.5 80.5 6.09644 80.5 13L105.5 13ZM84.1612 229.839C89.0427 234.72 96.9573 234.72 101.839 229.839L181.388 150.289C186.27 145.408 186.27 137.493 181.388 132.612C176.507 127.73 168.592 127.73 163.711 132.612L93 203.322L22.2893 132.612C17.4078 127.73 9.49321 127.73 4.61165 132.612C-0.2699 137.493 -0.269899 145.408 4.61165 150.289L84.1612 229.839ZM80.5 13L80.5 221L105.5 221L105.5 13L80.5 13Z" fill="#9ADE19"/>
</svg>
