<svg width="85" height="68" viewBox="0 0 85 68" fill="none" xmlns="http://www.w3.org/2000/svg">
<path d="M20.7313 34.1645C23.0577 31.8381 23.0577 28.0663 20.7313 25.74L14.1667 19.1753C12.7836 17.7922 12.7836 15.5498 14.1666 14.1667C15.5497 12.7836 17.7922 12.7836 19.1753 14.1667L25.7399 20.7313C28.0663 23.0577 31.8381 23.0577 34.1645 20.7313C34.4966 20.3992 34.947 20.2127 35.4167 20.2127C36.3947 20.2127 37.1875 21.0055 37.1875 21.9835V35.4167C37.1875 36.3947 36.3947 37.1875 35.4167 37.1875H21.9835C21.5138 37.1875 21.0634 37.0009 20.7313 36.6688C20.0398 35.9773 20.0398 34.856 20.7313 34.1645ZM31.875 46.0417C33.831 46.0417 35.4167 47.6273 35.4167 49.5833C35.4167 51.5393 33.831 53.125 31.875 53.125H7.08333C3.17132 53.125 0 49.9537 0 46.0417V7.08333C0 3.17132 3.17132 0 7.08333 0H67.2917C71.2037 0 74.375 3.17132 74.375 7.08333V28.3333C74.375 30.2893 72.7893 31.875 70.8333 31.875C68.8773 31.875 67.2917 30.2893 67.2917 28.3333V19.4792C67.2917 12.6331 61.7419 7.08333 54.8958 7.08333H26.5625C15.8044 7.08333 7.08333 15.8045 7.08333 26.5625V31.875C7.08333 39.699 13.426 46.0417 21.25 46.0417H31.875ZM46.0417 38.9583H81.4583C83.4143 38.9583 85 40.544 85 42.5V63.75C85 65.706 83.4143 67.2917 81.4583 67.2917H46.0417C44.0857 67.2917 42.5 65.706 42.5 63.75V42.5C42.5 40.544 44.0857 38.9583 46.0417 38.9583Z" fill="white"/>
</svg>
