<svg width="594" height="597" viewBox="0 0 594 597" fill="none" xmlns="http://www.w3.org/2000/svg">
<path d="M583.021 0H10.3726C4.61118 0 0 4.61765 0 10.364V586.236C0 591.982 4.61118 596.6 10.3726 596.6H69.5271C75.2885 596.6 79.8997 591.982 79.8997 586.236V79.6287H306.967V585.62C306.967 591.264 311.588 595.881 317.237 595.881H573.984C579.632 595.881 584.254 591.264 584.254 585.62V81.0653C584.254 80.5523 584.254 80.0392 584.048 79.5261C589.286 79.013 593.384 74.7032 593.384 69.3673V10.364C593.394 4.61765 588.773 0 583.021 0ZM69.5271 59.0032C63.776 59.0032 59.1546 63.6209 59.1546 69.3673V575.974H20.7452V20.6255H572.649V59.0032H69.5271ZM563.714 81.0653V575.359H327.507V79.6287H563.817C563.714 80.0392 563.714 80.5523 563.714 81.0653Z" fill="#9ADE19"/>
<path d="M379.822 357.303H344.514C338.835 357.303 334.244 352.706 334.244 347.042V259.82C334.244 254.155 338.835 249.558 344.514 249.558H379.822C385.501 249.558 390.092 254.155 390.092 259.82V347.042C390.092 352.706 385.491 357.303 379.822 357.303ZM354.784 336.78H369.552V270.081H354.784V336.78Z" fill="#9ADE19"/>
<path d="M96.4347 298.324C96.4347 295.553 97.5644 292.885 99.6184 290.935L154.357 237.884C156.308 236.037 158.978 235.011 161.546 235.011C164.216 235.011 166.896 236.037 168.94 238.192C172.843 242.194 172.74 248.761 168.642 252.66L132.071 288.062H288.173C293.822 288.062 298.443 292.68 298.443 298.324C298.443 303.967 293.822 308.585 288.173 308.585H132.071L168.642 343.987C172.74 347.886 172.843 354.454 168.94 358.456C164.935 362.56 158.465 362.663 154.357 358.763L99.6184 305.712C97.5644 303.762 96.4347 301.094 96.4347 298.324Z" fill="#9ADE19"/>
</svg>
