<svg width="90" height="91" viewBox="0 0 90 91" fill="none" xmlns="http://www.w3.org/2000/svg">
<rect x="3" y="3" width="84" height="85" rx="42" stroke="#9ADE19" stroke-width="6"/>
<path d="M45 35C48.3231 35 51 32.3231 51 29C51 25.6769 48.3231 23 45 23C41.6769 23 39 25.6769 39 29C39 32.3231 41.6769 35 45 35Z" fill="#9ADE19"/>
<path d="M45 40C42.2308 40 40 42.8897 40 46.4769V61.5231C40 65.1103 42.2308 68 45 68C47.7692 68 50 65.1103 50 61.5231V46.4769C50 42.8897 47.7692 40 45 40Z" fill="#9ADE19"/>
</svg>
