<svg width="85" height="67" viewBox="0 0 85 67" fill="none" xmlns="http://www.w3.org/2000/svg">
<path d="M30.4901 17.1152C28.1738 19.4314 28.1738 23.1869 30.4901 25.5032L37.0263 32.0394C38.4034 33.4165 38.4034 35.6492 37.0263 37.0263C35.6492 38.4034 33.4165 38.4034 32.0394 37.0263L25.5032 30.4901C23.1869 28.1738 19.4315 28.1738 17.1151 30.4901C16.7845 30.8208 16.336 31.0065 15.8684 31.0065C14.8947 31.0065 14.1053 30.2171 14.1053 29.2434V15.8684C14.1053 14.8947 14.8947 14.1053 15.8684 14.1053H29.2434C29.711 14.1053 30.1595 14.291 30.4901 14.6217C31.1787 15.3102 31.1787 16.4266 30.4901 17.1152ZM31.7368 45.8421C33.6844 45.8421 35.2632 47.4209 35.2632 49.3684C35.2632 51.3159 33.6844 52.8947 31.7368 52.8947H7.05263C3.15757 52.8947 0 49.7372 0 45.8421V7.05263C0 3.15757 3.15757 0 7.05263 0H67C70.8951 0 74.0526 3.15757 74.0526 7.05263V28.2105C74.0526 30.1581 72.4738 31.7368 70.5263 31.7368C68.5788 31.7368 67 30.1581 67 28.2105V19.3947C67 12.5784 61.4743 7.05263 54.6579 7.05263H26.4474C15.7359 7.05263 7.05263 15.736 7.05263 26.4474V31.7368C7.05263 39.527 13.3678 45.8421 21.1579 45.8421H31.7368ZM45.8421 38.7895H81.1053C83.0528 38.7895 84.6316 40.3683 84.6316 42.3158V63.4737C84.6316 65.4212 83.0528 67 81.1053 67H45.8421C43.8946 67 42.3158 65.4212 42.3158 63.4737V42.3158C42.3158 40.3683 43.8946 38.7895 45.8421 38.7895Z" fill="white"/>
</svg>
