<svg width="573" height="454" viewBox="0 0 573 454" fill="none" xmlns="http://www.w3.org/2000/svg">
<path d="M178.038 144.274L267.569 233.805L233.806 267.57L144.274 178.038L115.878 206.434C113.64 208.673 110.604 209.93 107.438 209.93C100.845 209.93 95.5 204.586 95.5 197.993V107.438C95.5 100.845 100.845 95.5 107.438 95.5H197.993C201.159 95.5 204.195 96.7577 206.434 98.9964C211.096 103.658 211.096 111.217 206.434 115.879L178.038 144.274ZM238.75 310.375V358.125H47.75C21.3784 358.125 0 336.747 0 310.375V47.75C0 21.3784 21.3784 0 47.75 0H453.625C479.997 0 501.375 21.3784 501.375 47.75V214.875H453.625V47.75H47.75V310.375H238.75ZM310.375 262.625H549.125C562.311 262.625 573 273.314 573 286.5V429.75C573 442.936 562.311 453.625 549.125 453.625H310.375C297.189 453.625 286.5 442.936 286.5 429.75V286.5C286.5 273.314 297.189 262.625 310.375 262.625Z" fill="#9ADE19"/>
</svg>
