<svg width="90" height="90" viewBox="0 0 90 90" fill="none" xmlns="http://www.w3.org/2000/svg">
<path d="M19.318 48.1821L35.8179 64.682C37.5753 66.4393 40.4247 66.4393 42.1821 64.682C43.9394 62.9246 43.9394 60.0752 42.1821 58.3178L33.3645 49.5003H67.5C69.9852 49.5003 72 47.4855 72 45.0003C72 42.5151 69.9852 40.5003 67.5 40.5003H33.3645L42.1821 31.6822C43.9394 29.9248 43.9394 27.0754 42.1821 25.318C40.4247 23.5607 37.5753 23.5607 35.8179 25.318L19.318 41.8179C17.5607 43.5753 17.5607 46.4247 19.318 48.1821Z" fill="#9ADE19"/>
<rect x="3" y="3" width="84" height="84" rx="17" stroke="#9ADE19" stroke-width="6"/>
</svg>
