<svg width="628" height="558" viewBox="0 0 628 558" fill="none" xmlns="http://www.w3.org/2000/svg">
<path fill-rule="evenodd" clip-rule="evenodd" d="M509.935 557.737C463.59 533.407 482.327 489.219 474.054 470.457C465.772 451.695 411.003 367.775 397.043 341.92C383.083 316.056 425.906 302.138 439.487 325.23C453.059 348.331 513.255 410.716 513.255 410.716C513.255 410.716 539.186 417.17 533.305 395.889C527.425 374.608 491.948 362.737 491.948 362.737L488.705 301.725C488.705 301.725 597.073 339.872 605.186 369.208C613.29 398.543 619.171 495.975 619.171 495.975L628 536.869L509.935 557.737ZM172.885 111.746C199.726 111.746 222.532 129.051 230.755 153.112H197.401C191.63 145.959 182.792 141.385 172.885 141.385C155.488 141.385 141.385 155.488 141.385 172.885C141.385 184.671 147.855 194.933 157.425 200.333V232.052C131.149 225.203 111.746 201.31 111.746 172.885C111.746 139.118 139.127 111.746 172.885 111.746ZM172.885 0C261.766 0 334.978 67.0865 344.675 153.382C343.167 153.205 341.633 153.112 340.083 153.112H314.767C305.129 83.3548 245.288 29.6468 172.885 29.6468C93.7762 29.6468 29.6468 93.7762 29.6468 172.885C29.6468 246.779 85.5874 307.589 157.425 315.297V345.079C69.1927 337.252 0 263.148 0 172.885C0 77.4069 77.4069 0 172.885 0ZM172.885 55.2918C231.092 55.2918 279.408 97.5842 288.818 153.112H258.607C249.635 114.055 214.663 84.9386 172.885 84.9386C124.308 84.9386 84.9386 124.308 84.9386 172.885C84.9386 216.188 116.228 252.171 157.425 259.475V289.467C99.7915 281.893 55.2918 232.583 55.2918 172.885C55.2918 107.947 107.947 55.2918 172.885 55.2918ZM177.83 173.028L472.613 170.711L473.7 348.339C470.035 344.085 466.421 339.78 462.891 335.407C458.721 330.243 454.02 324.388 450.658 318.667C443.447 306.409 430.169 300.032 416.167 300.588C403.614 301.085 390.716 307.243 384.65 318.65C379.587 328.179 380.623 338.777 385.644 348.07C388.871 354.06 392.376 359.991 395.931 365.863L179.052 367.565L177.83 173.028Z" fill="#9ADE19"/>
<path d="M199.799 444.24C200.679 444.24 201.399 444.173 201.959 444.04C202.546 443.88 203.012 443.68 203.359 443.44C203.706 443.173 203.946 442.867 204.079 442.52C204.212 442.173 204.279 441.787 204.279 441.36C204.279 440.453 203.852 439.707 202.999 439.12C202.146 438.507 200.679 437.853 198.599 437.16C197.692 436.84 196.786 436.48 195.879 436.08C194.972 435.653 194.159 435.133 193.439 434.52C192.719 433.88 192.132 433.12 191.679 432.24C191.226 431.333 190.999 430.24 190.999 428.96C190.999 427.68 191.239 426.533 191.719 425.52C192.199 424.48 192.879 423.6 193.759 422.88C194.639 422.16 195.706 421.613 196.959 421.24C198.212 420.84 199.626 420.64 201.199 420.64C203.066 420.64 204.679 420.84 206.039 421.24C207.399 421.64 208.519 422.08 209.399 422.56L207.599 427.48C206.826 427.08 205.959 426.733 204.999 426.44C204.066 426.12 202.932 425.96 201.599 425.96C200.106 425.96 199.026 426.173 198.359 426.6C197.719 427 197.399 427.627 197.399 428.48C197.399 428.987 197.519 429.413 197.759 429.76C197.999 430.107 198.332 430.427 198.759 430.72C199.212 430.987 199.719 431.24 200.279 431.48C200.866 431.693 201.506 431.92 202.199 432.16C203.639 432.693 204.892 433.227 205.959 433.76C207.026 434.267 207.906 434.867 208.599 435.56C209.319 436.253 209.852 437.067 210.199 438C210.546 438.933 210.719 440.067 210.719 441.4C210.719 443.987 209.812 446 207.999 447.44C206.186 448.853 203.452 449.56 199.799 449.56C198.572 449.56 197.466 449.48 196.479 449.32C195.492 449.187 194.612 449.013 193.839 448.8C193.092 448.587 192.439 448.36 191.879 448.12C191.346 447.88 190.892 447.653 190.519 447.44L192.279 442.48C193.106 442.933 194.119 443.347 195.319 443.72C196.546 444.067 198.039 444.24 199.799 444.24ZM228.16 449.56C223.654 449.56 220.214 448.307 217.84 445.8C215.494 443.293 214.32 439.733 214.32 435.12C214.32 432.827 214.68 430.787 215.4 429C216.12 427.187 217.107 425.667 218.36 424.44C219.614 423.187 221.107 422.24 222.84 421.6C224.574 420.96 226.454 420.64 228.48 420.64C229.654 420.64 230.72 420.733 231.68 420.92C232.64 421.08 233.48 421.28 234.2 421.52C234.92 421.733 235.52 421.96 236 422.2C236.48 422.44 236.827 422.627 237.04 422.76L235.24 427.8C234.387 427.347 233.387 426.96 232.24 426.64C231.12 426.32 229.84 426.16 228.4 426.16C227.44 426.16 226.494 426.32 225.56 426.64C224.654 426.96 223.84 427.48 223.12 428.2C222.427 428.893 221.867 429.8 221.44 430.92C221.014 432.04 220.8 433.4 220.8 435C220.8 436.28 220.934 437.48 221.2 438.6C221.494 439.693 221.947 440.64 222.56 441.44C223.2 442.24 224.027 442.88 225.04 443.36C226.054 443.813 227.28 444.04 228.72 444.04C229.627 444.04 230.44 443.987 231.16 443.88C231.88 443.773 232.52 443.653 233.08 443.52C233.64 443.36 234.134 443.187 234.56 443C234.987 442.813 235.374 442.64 235.72 442.48L237.44 447.48C236.56 448.013 235.32 448.493 233.72 448.92C232.12 449.347 230.267 449.56 228.16 449.56ZM261.151 449C260.857 448.04 260.524 447.053 260.151 446.04C259.804 445.027 259.457 444.013 259.111 443H248.311C247.964 444.013 247.604 445.027 247.231 446.04C246.884 447.053 246.564 448.04 246.271 449H239.791C240.831 446.013 241.817 443.253 242.751 440.72C243.684 438.187 244.591 435.8 245.471 433.56C246.377 431.32 247.257 429.2 248.111 427.2C248.991 425.173 249.897 423.2 250.831 421.28H256.791C257.697 423.2 258.591 425.173 259.471 427.2C260.351 429.2 261.231 431.32 262.111 433.56C263.017 435.8 263.937 438.187 264.871 440.72C265.804 443.253 266.791 446.013 267.831 449H261.151ZM253.671 427.56C253.537 427.96 253.337 428.507 253.071 429.2C252.804 429.893 252.497 430.693 252.151 431.6C251.804 432.507 251.417 433.507 250.991 434.6C250.591 435.693 250.177 436.84 249.751 438.04H257.631C257.204 436.84 256.791 435.693 256.391 434.6C255.991 433.507 255.604 432.507 255.231 431.6C254.884 430.693 254.577 429.893 254.311 429.2C254.044 428.507 253.831 427.96 253.671 427.56ZM290.019 449C288.232 445.827 286.299 442.693 284.219 439.6C282.139 436.507 279.925 433.587 277.579 430.84V449H271.419V421.28H276.499C277.379 422.16 278.352 423.24 279.419 424.52C280.485 425.8 281.565 427.173 282.659 428.64C283.779 430.08 284.885 431.587 285.979 433.16C287.072 434.707 288.099 436.2 289.059 437.64V421.28H295.259V449H290.019ZM326.423 439.68C326.423 441.04 326.263 442.32 325.943 443.52C325.649 444.72 325.116 445.773 324.343 446.68C323.596 447.56 322.569 448.267 321.263 448.8C319.983 449.307 318.356 449.56 316.383 449.56C314.569 449.56 313.009 449.347 311.703 448.92C310.396 448.467 309.316 447.947 308.463 447.36L310.543 442.52C311.316 442.973 312.143 443.373 313.023 443.72C313.903 444.067 314.863 444.24 315.903 444.24C317.423 444.24 318.516 443.867 319.183 443.12C319.849 442.373 320.183 441.12 320.183 439.36V421.28H326.423V439.68ZM332.434 449V421.28H351.154V426.52H338.674V431.96H349.754V437.08H338.674V443.76H352.074V449H332.434ZM374.622 420.96C378.755 420.96 381.928 421.693 384.142 423.16C386.355 424.6 387.462 426.973 387.462 430.28C387.462 433.613 386.342 436.027 384.102 437.52C381.862 438.987 378.662 439.72 374.502 439.72H372.542V449H366.302V421.68C367.662 421.413 369.102 421.227 370.622 421.12C372.142 421.013 373.475 420.96 374.622 420.96ZM375.022 426.28C374.568 426.28 374.115 426.293 373.662 426.32C373.235 426.347 372.862 426.373 372.542 426.4V434.4H374.502C376.662 434.4 378.288 434.107 379.382 433.52C380.475 432.933 381.022 431.84 381.022 430.24C381.022 429.467 380.875 428.827 380.582 428.32C380.315 427.813 379.915 427.413 379.382 427.12C378.875 426.8 378.248 426.587 377.502 426.48C376.755 426.347 375.928 426.28 375.022 426.28ZM407.869 449C407.576 448.04 407.243 447.053 406.869 446.04C406.523 445.027 406.176 444.013 405.829 443H395.029C394.683 444.013 394.323 445.027 393.949 446.04C393.603 447.053 393.283 448.04 392.989 449H386.509C387.549 446.013 388.536 443.253 389.469 440.72C390.403 438.187 391.309 435.8 392.189 433.56C393.096 431.32 393.976 429.2 394.829 427.2C395.709 425.173 396.616 423.2 397.549 421.28H403.509C404.416 423.2 405.309 425.173 406.189 427.2C407.069 429.2 407.949 431.32 408.829 433.56C409.736 435.8 410.656 438.187 411.589 440.72C412.523 443.253 413.509 446.013 414.549 449H407.869ZM400.389 427.56C400.256 427.96 400.056 428.507 399.789 429.2C399.523 429.893 399.216 430.693 398.869 431.6C398.523 432.507 398.136 433.507 397.709 434.6C397.309 435.693 396.896 436.84 396.469 438.04H404.349C403.923 436.84 403.509 435.693 403.109 434.6C402.709 433.507 402.323 432.507 401.949 431.6C401.603 430.693 401.296 429.893 401.029 429.2C400.763 428.507 400.549 427.96 400.389 427.56ZM426.44 444.24C427.32 444.24 428.04 444.173 428.6 444.04C429.186 443.88 429.653 443.68 430 443.44C430.346 443.173 430.586 442.867 430.72 442.52C430.853 442.173 430.92 441.787 430.92 441.36C430.92 440.453 430.493 439.707 429.64 439.12C428.786 438.507 427.32 437.853 425.24 437.16C424.333 436.84 423.426 436.48 422.52 436.08C421.613 435.653 420.8 435.133 420.08 434.52C419.36 433.88 418.773 433.12 418.32 432.24C417.866 431.333 417.64 430.24 417.64 428.96C417.64 427.68 417.88 426.533 418.36 425.52C418.84 424.48 419.52 423.6 420.4 422.88C421.28 422.16 422.346 421.613 423.6 421.24C424.853 420.84 426.266 420.64 427.84 420.64C429.706 420.64 431.32 420.84 432.68 421.24C434.04 421.64 435.16 422.08 436.04 422.56L434.24 427.48C433.466 427.08 432.6 426.733 431.64 426.44C430.706 426.12 429.573 425.96 428.24 425.96C426.746 425.96 425.666 426.173 425 426.6C424.36 427 424.04 427.627 424.04 428.48C424.04 428.987 424.16 429.413 424.4 429.76C424.64 430.107 424.973 430.427 425.4 430.72C425.853 430.987 426.36 431.24 426.92 431.48C427.506 431.693 428.146 431.92 428.84 432.16C430.28 432.693 431.533 433.227 432.6 433.76C433.666 434.267 434.546 434.867 435.24 435.56C435.96 436.253 436.493 437.067 436.84 438C437.186 438.933 437.36 440.067 437.36 441.4C437.36 443.987 436.453 446 434.64 447.44C432.826 448.853 430.093 449.56 426.44 449.56C425.213 449.56 424.106 449.48 423.12 449.32C422.133 449.187 421.253 449.013 420.48 448.8C419.733 448.587 419.08 448.36 418.52 448.12C417.986 447.88 417.533 447.653 417.16 447.44L418.92 442.48C419.746 442.933 420.76 443.347 421.96 443.72C423.186 444.067 424.68 444.24 426.44 444.24Z" fill="#03274F"/>
</svg>
