<svg width="480" height="516" viewBox="0 0 480 516" fill="none" xmlns="http://www.w3.org/2000/svg">
<path fill-rule="evenodd" clip-rule="evenodd" d="M237.684 153.63C274.586 153.63 305.944 177.431 317.24 210.508H271.388C263.452 200.674 251.304 194.387 237.684 194.387C213.767 194.387 194.38 213.767 194.38 237.692C194.38 253.89 203.268 267.997 216.431 275.422V319.029C180.303 309.614 153.622 276.762 153.622 237.692C153.622 191.275 191.267 153.63 237.684 153.63ZM237.684 0C359.871 0 460.526 92.2384 473.851 210.872C471.784 210.632 469.678 210.508 467.549 210.508H432.738C419.49 114.607 337.224 40.7574 237.684 40.7574C128.915 40.7574 40.7574 128.923 40.7574 237.692C40.7574 339.268 117.665 422.873 216.431 433.473V474.416C95.1264 463.662 0 361.784 0 237.692C0 106.423 106.423 0 237.684 0ZM237.684 76.0175C317.697 76.0175 384.137 134.165 397.067 210.508H355.528C343.194 156.812 295.119 116.775 237.684 116.775C170.896 116.775 116.775 170.904 116.775 237.692C116.775 297.225 159.785 346.693 216.431 356.736V397.965C137.192 387.559 76.0175 319.764 76.0175 237.692C76.0175 148.411 148.404 76.0175 237.684 76.0175Z" fill="#9ADE19"/>
<path d="M271.75 237C255.328 237 242 250.392 242 266.893V486.107C242 502.608 255.328 516 271.75 516H440.333V276.857H400.667V356.571L370.917 336.643L341.167 356.571V276.857H271.75C266.276 276.857 261.833 272.393 261.833 266.893C261.833 261.393 266.276 256.929 271.75 256.929H460.167V476.143H480V237H271.75Z" fill="#9ADE19"/>
</svg>
